<?xml version="1.0" standalone="no"?><!DOCTYPE svg PUBLIC "-//W3C//DTD SVG 1.1//EN" "http://www.w3.org/Graphics/SVG/1.1/DTD/svg11.dtd"><svg t="1601268726562" class="icon" viewBox="0 0 1024 1024" version="1.1" xmlns="http://www.w3.org/2000/svg" p-id="972" xmlns:xlink="http://www.w3.org/1999/xlink" width="200" height="200"><defs><style type="text/css"></style></defs><path d="M419.84 631.466667c-3.413333 0-10.24 0-13.653333-3.413334l-102.4-102.4c-6.826667-6.826667-6.826667-17.066667 0-23.893333l85.333333-85.333333c6.826667-6.826667 17.066667-6.826667 23.893333 0l102.4 102.4c6.826667 6.826667 6.826667 17.066667 0 23.893333l-85.333333 85.333333c-3.413333 3.413333-6.826667 3.413333-10.24 3.413334zM341.333333 512l78.506667 78.506667 61.44-61.44-78.506667-78.506667L341.333333 512zM846.506667 204.8c-3.413333 0-10.24 0-13.653334-3.413333l-85.333333-85.333334c-6.826667-6.826667-6.826667-17.066667 0-23.893333L832.853333 6.826667c6.826667-6.826667 17.066667-6.826667 23.893334 0l85.333333 85.333333c6.826667 6.826667 6.826667 17.066667 0 23.893333l-85.333333 85.333334c-3.413333 3.413333-6.826667 3.413333-10.24 3.413333zM785.066667 102.4l61.44 61.44L904.533333 102.4l-61.44-61.44L785.066667 102.4z" fill="#1296db" p-id="973"></path><path d="M880.64 1024h-614.4c-10.24 0-17.066667-6.826667-17.066667-17.066667v-92.16c-6.826667-3.413333-13.653333-10.24-20.48-13.653333-30.72-23.893333-58.026667-40.96-78.506666-81.92H95.573333c-10.24 0-17.066667-6.826667-17.066666-17.066667v-102.4c0-10.24 6.826667-17.066667 17.066666-17.066666h409.6c10.24 0 17.066667 6.826667 17.066667 17.066666v102.4c0 10.24-6.826667 17.066667-17.066667 17.066667H375.466667c40.96 27.306667 95.573333 34.133333 160.426666 34.133333 136.533333 0 256-112.64 256-238.933333 0-47.786667-10.24-88.746667-30.72-122.88-3.413333-3.413333-3.413333-10.24 0-13.653333 0-3.413333 3.413333-6.826667 10.24-10.24 6.826667-3.413333 13.653333-6.826667 20.48-13.653334 6.826667-6.826667 13.653333-10.24 17.066667-17.066666 10.24-17.066667 17.066667-34.133333 20.48-54.613334 0-6.826667 6.826667-13.653333 13.653333-13.653333 6.826667-3.413333 13.653333 0 17.066667 6.826667 47.786667 64.853333 71.68 146.773333 71.68 238.933333 0 85.333333-30.72 167.253333-81.92 238.933333h30.72c10.24 0 17.066667 6.826667 17.066667 17.066667v136.533333c0 10.24-10.24 17.066667-17.066667 17.066667zM283.306667 989.866667h580.266666v-102.4h-51.2c-6.826667 0-13.653333-3.413333-17.066666-10.24s0-13.653333 3.413333-17.066667c64.853333-71.68 98.986667-157.013333 98.986667-245.76 0-71.68-13.653333-133.12-44.373334-187.733333-3.413333 10.24-10.24 20.48-17.066666 27.306666-6.826667 10.24-13.653333 17.066667-23.893334 23.893334-3.413333 3.413333-6.826667 6.826667-10.24 6.826666 17.066667 37.546667 27.306667 81.92 27.306667 126.293334 0 146.773333-136.533333 273.066667-290.133333 273.066666-81.92 0-163.84-10.24-218.453334-75.093333-3.413333-6.826667-3.413333-13.653333-3.413333-17.066667s10.24-6.826667 17.066667-6.826666h153.6v-68.266667h-375.466667v68.266667h51.2c6.826667 0 13.653333 3.413333 17.066667 10.24 17.066667 37.546667 37.546667 54.613333 68.266666 75.093333 10.24 6.826667 17.066667 13.653333 27.306667 20.48 3.413333 3.413333 6.826667 6.826667 6.826667 13.653333V989.866667z" fill="#1296db" p-id="974"></path><path d="M539.306667 580.266667c-3.413333 0-10.24 0-13.653334-3.413334l-170.666666-170.666666c-6.826667-6.826667-6.826667-17.066667 0-23.893334l341.333333-341.333333c6.826667-6.826667 17.066667-6.826667 23.893333 0l187.733334 187.733333c6.826667 6.826667 6.826667 17.066667 0 23.893334l-71.68 71.68c-3.413333 3.413333-10.24 6.826667-13.653334 3.413333-3.413333 0-10.24-3.413333-13.653333-6.826667-17.066667-30.72-47.786667-47.786667-81.92-47.786666-58.026667 0-102.4 44.373333-102.4 102.4 0 30.72 13.653333 58.026667 37.546667 78.506666 3.413333 3.413333 6.826667 6.826667 6.826666 13.653334s-3.413333 10.24-6.826666 13.653333l-109.226667 95.573333c-6.826667 3.413333-10.24 3.413333-13.653333 3.413334z m-146.773334-187.733334l146.773334 146.773334 85.333333-75.093334c-20.48-23.893333-34.133333-58.026667-34.133333-88.746666 0-75.093333 61.44-136.533333 136.533333-136.533334 37.546667 0 75.093333 17.066667 102.4 44.373334L870.4 238.933333l-163.84-163.84-314.026667 317.44z" fill="#1296db" p-id="975"></path><path d="M727.04 512c-75.093333 0-136.533333-61.44-136.533333-136.533333s61.44-136.533333 136.533333-136.533334 136.533333 61.44 136.533333 136.533334-61.44 136.533333-136.533333 136.533333z m0-238.933333c-58.026667 0-102.4 44.373333-102.4 102.4s44.373333 102.4 102.4 102.4 102.4-44.373333 102.4-102.4-47.786667-102.4-102.4-102.4z" fill="#1296db" p-id="976"></path></svg>